<svg xmlns="http://www.w3.org/2000/svg" xmlns:xlink="http://www.w3.org/1999/xlink" viewBox="0 0 512 512" id="PriceTag">
  <defs>
    <linearGradient id="a" x2="512" y1="256" y2="256" gradientUnits="userSpaceOnUse">
      <stop offset="0" stop-color="#3cab90" class="stopColorffe500 svgShape"></stop>
      <stop offset="1" stop-color="#00ffc1" class="stopColorff6400 svgShape"></stop>
    </linearGradient>
    <linearGradient xlink:href="#a" id="b" x1="53.12" x2="329.02" y1="313.49" y2="313.49"></linearGradient>
    <linearGradient xlink:href="#a" id="c" x1="122.68" x2="259.48" y1="313.49" y2="313.49"></linearGradient>
    <linearGradient xlink:href="#a" id="d" x1="158.34" x2="182.26" y1="260.31" y2="260.31"></linearGradient>
    <linearGradient xlink:href="#a" id="e" x1="199.89" x2="223.81" y1="366.66" y2="366.66"></linearGradient>
  </defs>
  <path fill="url(#a)" d="M511.06,373.79,444.93,127a27.19,27.19,0,0,0-17.11-18.58L348.23,79.93l-1.82-3.84a27.31,27.31,0,0,0-5.28-7.53l33.09-57.31a7.5,7.5,0,0,0-13-7.5L328.14,61.06a27.92,27.92,0,0,0-9.14-.8L183.16,71.42a27.81,27.81,0,0,0-21.8,13.81L3.74,358.24a27.79,27.79,0,0,0,10.17,38L208,508.28a27.81,27.81,0,0,0,38-10.17l38.8-67.2.87,3.27A27.17,27.17,0,0,0,319,453.42l172.82-46.3a27.22,27.22,0,0,0,19.24-33.33Zm-88.3-251.24a12.2,12.2,0,0,1,7.69,8.34l48.76,182-149.39,40,73.79-127.82a27.77,27.77,0,0,0,1.06-25.78L357.3,99.11ZM233,490.61a12.81,12.81,0,0,1-17.48,4.68L21.41,383.22a12.8,12.8,0,0,1-4.68-17.48l157.62-273a12.79,12.79,0,0,1,10-6.36L320,75.24l-33,57.22a32.14,32.14,0,0,0-9.3-1.37A32.56,32.56,0,1,0,299.91,140l33-57.25,58.15,123a12.78,12.78,0,0,1-.49,11.87Zm62.12-327a17.5,17.5,0,1,1-17.5-17.5A17.52,17.52,0,0,1,295.12,163.59ZM495.35,386.94a12.15,12.15,0,0,1-7.42,5.69L315.11,438.94a12.21,12.21,0,0,1-15-8.64l-4.76-17.76,23.82-41.26,163.88-43.91,13.48,50.3A12.12,12.12,0,0,1,495.35,386.94Z"></path>
  <path fill="url(#b)" d="M315.13,247.12l-128.6-74.25a27.79,27.79,0,0,0-38,10.18L56.85,341.88a27.81,27.81,0,0,0,10.18,38l128.6,74.25a27.67,27.67,0,0,0,13.85,3.74,28,28,0,0,0,7.24-1,27.61,27.61,0,0,0,16.88-12.95l91.7-158.84A27.82,27.82,0,0,0,315.13,247.12Zm-2.82,30.47-91.7,158.84a12.8,12.8,0,0,1-17.48,4.68L74.53,366.86a12.79,12.79,0,0,1-4.69-17.48l91.7-158.83a12.74,12.74,0,0,1,7.78-6,13.08,13.08,0,0,1,3.33-.44,12.7,12.7,0,0,1,6.38,1.72l128.6,74.25a12.8,12.8,0,0,1,4.68,17.48Z"></path>
  <path fill="url(#c)" d="M250,289.92,128.24,322.56a7.5,7.5,0,0,0,1.94,14.75,7.67,7.67,0,0,0,1.94-.26l121.8-32.64A7.5,7.5,0,0,0,250,289.92Z"></path>
  <path fill="url(#d)" d="M162.09,274.53a7.52,7.52,0,0,0,10.25-2.75l8.92-15.44a7.5,7.5,0,1,0-13-7.5l-8.92,15.44A7.51,7.51,0,0,0,162.09,274.53Z"></path>
  <path fill="url(#e)" d="M220.06,352.44a7.49,7.49,0,0,0-10.24,2.75l-8.92,15.44a7.5,7.5,0,1,0,13,7.5l8.92-15.44A7.51,7.51,0,0,0,220.06,352.44Z"></path>
</svg>
