<svg xmlns="http://www.w3.org/2000/svg" fill="none" viewBox="0 0 96 96" id="ZapFast"><path stroke="#ffffff" stroke-linecap="round" stroke-width="5" d="M39.6111 47.0945L67.7577 9.65878C68.7625 8.32234 70.8702 9.38385 70.3947 10.9869L61.9189 39.5558C61.5386 40.8377 62.4991 42.1246 63.8363 42.1246H78.3281C80.7374 42.1246 82.1638 44.8214 80.8078 46.813L54.8073 85.0007C53.8427 86.4174 51.6397 85.3695 52.1301 83.7273L60.8678 54.4697C61.2508 53.187 60.2901 51.8974 58.9514 51.8974H42.009C39.5352 51.8974 38.1245 49.0718 39.6111 47.0945zM20 36L33 36M11 49L29 49M23 62L35 62" class="colorStroke000000 svgStroke"></path></svg>